<svg xmlns="http://www.w3.org/2000/svg" width="128" height="128" fill="none"><path fill="#fff" d="M97.429 34.839c0 .63-.517 1.138-1.146 1.138H83.47c-.187.607-.42 1.199-.681 1.775l9.915 5.055c.561.284.786.973.501 1.535a1.143 1.143 0 0 1-1.018.622c-.172 0-.352-.038-.517-.12l-9.937-5.07c-.367.6-.764 1.176-1.191 1.722a17.916 17.916 0 0 1-10.424 6.53h-.007c-1.206.255-2.457.39-3.737.39A17.924 17.924 0 0 1 50.76 39.34l-10.761 5.526a1.136 1.136 0 0 1-1.535-.494 1.136 1.136 0 0 1 .494-1.535l10.799-5.55a15.38 15.38 0 0 1-.667-1.924H37.146A1.15 1.15 0 0 1 36 34.218c0-.63.517-1.139 1.146-1.139h11.45a17.315 17.315 0 0 1-.187-2.082l-9.968-4.425a1.144 1.144 0 0 1-.584-1.506 1.144 1.144 0 0 1 1.505-.584l9.136 4.052c.113-1.034.315-2.037.592-3.01.367-1.439.562-2.944.562-4.494 0-5.13-2.15-9.758-5.602-13.03a17.879 17.879 0 0 1 12.746 5.452c.404.412.973.659 1.587.659.315 0 .607-.06.877-.173a17.856 17.856 0 0 1 7.114-1.467 18.138 18.138 0 0 1 7.436 1.617c.09.045.18.083.27.113.007.014.022.014.03.014.239.09.501.143.77.143.622 0 1.176-.255 1.58-.652.06-.06.113-.112.166-.172 3.092-3.228 7.368-5.302 12.138-5.512-3.474 3.28-5.646 7.923-5.646 13.075 0 1.55.195 3.056.57 4.494 0 .022.007.045.014.067.36 1.325.577 2.703.637 4.119l10.956-3.992a1.135 1.135 0 0 1 1.527 1.071c0 .464-.284.899-.749 1.071L84.25 32.24a11.52 11.52 0 0 1-.202 1.453h12.236a1.15 1.15 0 0 1 1.146 1.146ZM84.713 90.584s-.023.068-.03.098c-2.202 10.746-8.388 20.047-16.932 26.3a43.076 43.076 0 0 1-16.116 7.308 9.34 9.34 0 0 1-.27-2.209v-.067c.008-1.52 1.057-2.808 2.495-3.295a26.89 26.89 0 0 0 9.083-5.242c5.654-4.935 9.174-12.199 9.226-20.302v-.906c0-.082 0-.165-.007-.24 0-.082-.008-.164-.015-.246 0-.023 0-.046-.008-.06a3.548 3.548 0 0 0-.27-1.124c-.044-.082-.067-.12-.067-.12-.33-.509-.846-.846-1.468-.966 0 0-.03-.007-.09-.015h-.014a3.193 3.193 0 0 0-1.019.053c-.015 0-.022.007-.037 0a17.59 17.59 0 0 1-3.58.367c-9.937 0-17.972-8.043-17.972-17.973 0-1.924.307-3.789.868-5.526 2.33-7.22 9.106-12.446 17.104-12.446 5.946 0 11.226 2.89 14.49 7.346.038.045.09.112.15.195.195.262.502.689.862 1.265 0 0 .142.217.374.614.846 1.446 2.898 5.28 3.662 9.72 0 0 .007.038.015.098a17.574 17.574 0 0 1 .112.749c.367 2.59 1.25 10.559-.546 16.624Z"/></svg>