<svg id="visual" viewBox="0 0 900 600" width="900" height="600" xmlns="http://www.w3.org/2000/svg" xmlns:xlink="http://www.w3.org/1999/xlink" version="1.1"><g stroke-width="1" stroke-linejoin="bevel"><path d="M494.3 264L386.7 339L489.3 368Z" fill="#141b2e" stroke="#141b2e"></path><path d="M494.3 264L383.7 224L386.7 339Z" fill="#21d2fe" stroke="#21d2fe"></path><path d="M489.3 368L599.9 387L494.3 264Z" fill="#21d2fe" stroke="#21d2fe"></path><path d="M386.7 339L400.7 488L489.3 368Z" fill="#3294c1" stroke="#3294c1"></path><path d="M489.3 368L502.3 491L599.9 387Z" fill="#3381ac" stroke="#3381ac"></path><path d="M599.9 387L603.9 214L494.3 264Z" fill="#1d2a41" stroke="#1d2a41"></path><path d="M494.3 264L506.3 112L383.7 224Z" fill="#243956" stroke="#243956"></path><path d="M400.7 488L502.3 491L489.3 368Z" fill="#2f5c80" stroke="#2f5c80"></path><path d="M603.9 214L506.3 112L494.3 264Z" fill="#21d2fe" stroke="#21d2fe"></path><path d="M383.7 224L237.1 338L386.7 339Z" fill="#3381ac" stroke="#3381ac"></path><path d="M386.7 339L250.1 479L400.7 488Z" fill="#29bdea" stroke="#29bdea"></path><path d="M239.1 216L237.1 338L383.7 224Z" fill="#3381ac" stroke="#3381ac"></path><path d="M258.1 82L239.1 216L383.7 224Z" fill="#3381ac" stroke="#3381ac"></path><path d="M506.3 112L417.7 73L383.7 224Z" fill="#2a4a6b" stroke="#2a4a6b"></path><path d="M237.1 338L250.1 479L386.7 339Z" fill="#3381ac" stroke="#3381ac"></path><path d="M502.3 491L690.9 442L599.9 387Z" fill="#2fa8d6" stroke="#2fa8d6"></path><path d="M599.9 387L755.4 216L603.9 214Z" fill="#2f5c80" stroke="#2f5c80"></path><path d="M134.6 206L172.6 379L237.1 338Z" fill="#21d2fe" stroke="#21d2fe"></path><path d="M237.1 338L172.6 379L250.1 479Z" fill="#2fa8d6" stroke="#2fa8d6"></path><path d="M400.7 488L507.3 600L502.3 491Z" fill="#2f5c80" stroke="#2f5c80"></path><path d="M502.3 491L657.9 600L690.9 442Z" fill="#29bdea" stroke="#29bdea"></path><path d="M365.7 600L507.3 600L400.7 488Z" fill="#1d2a41" stroke="#1d2a41"></path><path d="M250.1 479L365.7 600L400.7 488Z" fill="#21d2fe" stroke="#21d2fe"></path><path d="M417.7 73L258.1 82L383.7 224Z" fill="#326e96" stroke="#326e96"></path><path d="M239.1 216L134.6 206L237.1 338Z" fill="#3381ac" stroke="#3381ac"></path><path d="M669.9 0L505.3 0L506.3 112Z" fill="#29bdea" stroke="#29bdea"></path><path d="M506.3 112L505.3 0L417.7 73Z" fill="#3381ac" stroke="#3381ac"></path><path d="M417.7 73L352.7 0L258.1 82Z" fill="#243956" stroke="#243956"></path><path d="M785.4 379L755.4 216L599.9 387Z" fill="#3381ac" stroke="#3381ac"></path><path d="M603.9 214L689.9 78L506.3 112Z" fill="#326e96" stroke="#326e96"></path><path d="M505.3 0L352.7 0L417.7 73Z" fill="#3381ac" stroke="#3381ac"></path><path d="M122.6 0L169.6 137L258.1 82Z" fill="#2fa8d6" stroke="#2fa8d6"></path><path d="M258.1 82L169.6 137L239.1 216Z" fill="#21d2fe" stroke="#21d2fe"></path><path d="M169.6 137L134.6 206L239.1 216Z" fill="#141b2e" stroke="#141b2e"></path><path d="M250.1 479L279.1 600L365.7 600Z" fill="#326e96" stroke="#326e96"></path><path d="M134.6 600L279.1 600L250.1 479Z" fill="#1d2a41" stroke="#1d2a41"></path><path d="M0 329L146.6 461L172.6 379Z" fill="#2a4a6b" stroke="#2a4a6b"></path><path d="M172.6 379L146.6 461L250.1 479Z" fill="#243956" stroke="#243956"></path><path d="M755.4 216L689.9 78L603.9 214Z" fill="#1d2a41" stroke="#1d2a41"></path><path d="M690.9 442L785.4 379L599.9 387Z" fill="#141b2e" stroke="#141b2e"></path><path d="M785.4 440L785.4 379L690.9 442Z" fill="#29bdea" stroke="#29bdea"></path><path d="M507.3 600L657.9 600L502.3 491Z" fill="#29bdea" stroke="#29bdea"></path><path d="M804.4 600L785.4 440L690.9 442Z" fill="#243956" stroke="#243956"></path><path d="M352.7 0L264.1 0L258.1 82Z" fill="#21d2fe" stroke="#21d2fe"></path><path d="M768.4 0L669.9 0L689.9 78Z" fill="#2fa8d6" stroke="#2fa8d6"></path><path d="M689.9 78L669.9 0L506.3 112Z" fill="#2fa8d6" stroke="#2fa8d6"></path><path d="M755.4 216L772.4 83L689.9 78Z" fill="#2fa8d6" stroke="#2fa8d6"></path><path d="M900 124L772.4 83L755.4 216Z" fill="#2f5c80" stroke="#2f5c80"></path><path d="M0 483L134.6 600L146.6 461Z" fill="#3381ac" stroke="#3381ac"></path><path d="M146.6 461L134.6 600L250.1 479Z" fill="#3381ac" stroke="#3381ac"></path><path d="M772.4 83L768.4 0L689.9 78Z" fill="#2a4a6b" stroke="#2a4a6b"></path><path d="M134.6 206L0 329L172.6 379Z" fill="#29bdea" stroke="#29bdea"></path><path d="M0 192L0 329L134.6 206Z" fill="#2fa8d6" stroke="#2fa8d6"></path><path d="M0 192L134.6 206L0 105Z" fill="#2f5c80" stroke="#2f5c80"></path><path d="M264.1 0L122.6 0L258.1 82Z" fill="#3294c1" stroke="#3294c1"></path><path d="M900 408L900 245L785.4 379Z" fill="#2f5c80" stroke="#2f5c80"></path><path d="M785.4 379L900 245L755.4 216Z" fill="#3381ac" stroke="#3381ac"></path><path d="M772.4 83L900 0L768.4 0Z" fill="#243956" stroke="#243956"></path><path d="M657.9 600L804.4 600L690.9 442Z" fill="#243956" stroke="#243956"></path><path d="M785.4 440L900 408L785.4 379Z" fill="#3294c1" stroke="#3294c1"></path><path d="M900 501L900 408L785.4 440Z" fill="#29bdea" stroke="#29bdea"></path><path d="M0 105L134.6 206L169.6 137Z" fill="#2f5c80" stroke="#2f5c80"></path><path d="M0 329L0 483L146.6 461Z" fill="#3381ac" stroke="#3381ac"></path><path d="M804.4 600L900 501L785.4 440Z" fill="#2fa8d6" stroke="#2fa8d6"></path><path d="M900 245L900 124L755.4 216Z" fill="#21d2fe" stroke="#21d2fe"></path><path d="M122.6 0L0 105L169.6 137Z" fill="#1d2a41" stroke="#1d2a41"></path><path d="M0 483L0 600L134.6 600Z" fill="#2fa8d6" stroke="#2fa8d6"></path><path d="M804.4 600L900 600L900 501Z" fill="#2f5c80" stroke="#2f5c80"></path><path d="M122.6 0L0 0L0 105Z" fill="#3381ac" stroke="#3381ac"></path><path d="M900 124L900 0L772.4 83Z" fill="#326e96" stroke="#326e96"></path></g></svg>