<svg xmlns="http://www.w3.org/2000/svg" width="280" height="160" fill="none"><path fill="#8126FE" d="M0 0h280v160H0z"/><path fill="#131B2E" d="M40 40V0H0v40z"/><path fill="#8126FE" d="M0 40V0l40 40H0Z"/><path fill="#131B2E" d="M40 0v40h40V0z"/><path fill="#30B2FE" d="M40 0a40 40 0 0 0 40 40V0H40Z"/><path fill="#131B2E" d="M120 0v40H80V0z"/><path fill="#766AFE" d="M120 0a40.001 40.001 0 0 1-40 40V0h40Z"/><path fill="#131B2E" d="M120 0h40v40h-40z"/><path fill="#30B2FE" d="M140 0c0 11.046 8.955 20 20 20V0h-20Z"/><path fill="#8126FE" d="M140 40c0-11.046 8.955-20 20-20v20h-20Z"/><path fill="#30B2FE" d="M140 0c0 11.046-8.954 20-20 20V0h20Z"/><path fill="#766AFE" d="M140 40c0-11.046-8.954-20-20-20v20h20Z"/><path fill="#131B2E" d="M160 40h40V0h-40z"/><path fill="#766AFE" d="M160 20c0-11.046 8.955-20 20-20v40c-11.045 0-20-8.954-20-20ZM200 20c0-11.046-8.954-20-20-20v40c11.046 0 20-8.954 20-20Z"/><path fill="#30B2FE" d="M200 0h40v40h-40z"/><path fill="#30B2FE" d="M200 0h20v40h-20z"/><path fill="#766AFE" d="M220 0c0 11.046 8.955 20 20.001 20V0H220Z"/><path fill="#131B2E" d="M220 40c0-11.046 8.955-20 20.001-20v20H220Z"/><path fill="#131B2E" d="M280 0h-40v40h40z"/><path fill="#8126FE" d="M280 40h-40l40-40v40Z"/><path fill="#131B2E" d="M40 40H0v40h40z"/><path fill="#766AFE" d="M40 60c0 11.046-8.954 20-20 20V40c11.046 0 20 8.954 20 20Z"/><path fill="#30B2FE" d="M0 60c0 11.045 8.955 20 20 20V40C8.955 40 0 48.954 0 60Z"/><path fill="#131B2E" d="M80 80V40H40v40z"/><path fill="#8126FE" d="M40 80v-5l5 5h-5ZM45 80v-5l5 5h-5ZM50 80v-5l5 5h-5ZM55 80v-5l5 5h-5ZM60 80v-5l5 5h-5ZM65 80v-5l5 5h-5ZM70 80v-5l5 5h-5ZM75 80v-5l5 5h-5ZM40 75v-5l5 5h-5ZM45 75v-5l5 5h-5ZM50 75v-5l5 5h-5ZM55 75v-5l5 5h-5ZM60 75v-5l5 5h-5ZM65 75v-5l5 5h-5ZM70 75v-5l5 5h-5ZM40 70v-5l5 5h-5ZM45 70v-5l5 5h-5ZM50 70v-5l5 5h-5ZM55 70v-5l5 5h-5ZM60 70v-5l5 5h-5ZM65 70v-5l5 5h-5ZM40 65v-5l5 5h-5ZM45 65v-5l5 5h-5ZM50 65v-5l5 5h-5ZM55 65v-5l5 5h-5ZM60 65v-5l5 5h-5ZM40 60v-5l5 5h-5ZM45 60v-5l5 5h-5ZM50 60v-5l5 5h-5ZM55 60v-5l5 5h-5ZM40 55v-5l5 5h-5ZM45 55v-5l5 5h-5ZM50 55v-5l5 5h-5ZM40 50v-5l5 5h-5ZM45 50v-5l5 5h-5ZM40 45v-5l5 5h-5Z"/><path fill="#131B2E" d="M80 80V40h40v40zM120 80V40h40v40z"/><path fill="#8126FE" d="M160 80v-5l-5 5h5ZM155 80v-5l-5 5h5ZM150 80v-5l-5 5h5ZM145 80v-5l-5 5h5ZM140 80v-5l-5 5h5ZM135 80v-5l-5 5h5ZM130 80v-5l-5 5h5ZM125 80v-5l-5 5h5ZM160 75v-5l-5 5h5ZM155 75v-5l-5 5h5ZM150 75v-5l-5 5h5ZM145 75v-5l-5 5h5ZM140 75v-5l-5 5h5ZM135 75v-5l-5 5h5ZM130 75v-5l-5 5h5ZM160 70v-5l-5 5h5ZM155 70v-5l-5 5h5ZM150 70v-5l-5 5h5ZM145 70v-5l-5 5h5ZM140 70v-5l-5 5h5ZM135 70v-5l-5 5h5ZM160 65v-5l-5 5h5ZM155 65v-5l-5 5h5ZM150 65v-5l-5 5h5ZM145 65v-5l-5 5h5ZM140 65v-5l-5 5h5ZM160 60v-5l-5 5h5ZM155 60v-5l-5 5h5ZM150 60v-5l-5 5h5ZM145 60v-5l-5 5h5ZM160 55v-5l-5 5h5ZM155 55v-5l-5 5h5ZM150 55v-5l-5 5h5ZM160 50v-5l-5 5h5ZM155 50v-5l-5 5h5ZM160 45v-5l-5 5h5Z"/><path fill="#30B2FE" d="M160 80V40h40v40z"/><path fill="#131B2E" d="M200 80V40h40v40z"/><path fill="#8126FE" d="M200 80V60h40v20z"/><path fill="#766AFE" d="M240.001 60c-11.046 0-20-8.954-20-20h20v20Z"/><path fill="#131B2E" d="M280 40v40h-40V40z"/><path fill="#30B2FE" d="M280.001 80A40.003 40.003 0 0 0 240 40v40h40.001Z"/><path fill="#766AFE" d="M260.001 80A20.003 20.003 0 0 0 240 60v20h20.001Z"/><path fill="#131B2E" d="M0 120V80h40v40z"/><path fill="#30B2FE" d="M0 100c11.046 0 20-8.954 20-20H0v20Z"/><path fill="#766AFE" d="M40 100c-11.045 0-20-8.954-20-20h20v20Z"/><path fill="#30B2FE" d="M0 100c11.046 0 20 8.954 20 20H0v-20Z"/><path fill="#766AFE" d="M40 100c-11.045 0-20 8.954-20 20h20v-20Z"/><path fill="#131B2E" d="M80 120V80H40v40z"/><path fill="#8126FE" d="M80 80a40.001 40.001 0 0 1-40 40V80h40Z"/><path fill="#766AFE" d="M60 80a20 20 0 0 1-20 20V80h20Z"/><path fill="#131B2E" d="M80 120V80h40v40z"/><path fill="#30B2FE" d="M80 80a40 40 0 0 0 40 40V80H80Z"/><path fill="#8126FE" d="M160 120V80h-40v40z"/><path fill="#8126FE" d="M120 120V80l40 40h-40Z"/><path fill="#131B2E" d="M160 80v40h40V80z"/><path fill="#766AFE" d="M180 100c11.046 0 20 8.954 20 20h-40c0-11.046 8.955-20 20-20Z"/><path fill="#30B2FE" d="M180 100c11.046 0 20-8.954 20-20h-40c0 11.046 8.955 20 20 20Z"/><path fill="#131B2E" d="M200 120V80h40v40z"/><path fill="#766AFE" d="M220 100c11.046 0 20-8.954 20-20h-40c0 11.046 8.955 20 20 20Z"/><path fill="#131B2E" d="M280 120V80h-40v40z"/><path fill="#8126FE" d="M240 120v-5l5 5h-5ZM245 120v-5l5 5h-5ZM250 120v-5l5 5h-5ZM255 120v-5l5 5h-5ZM260 120v-5l5 5h-5ZM265 120v-5l5 5h-5ZM270 120v-5l5 5h-5ZM275 120v-5l5 5h-5ZM240 115v-5l5 5h-5ZM245 115v-5l5 5h-5ZM250 115v-5l5 5h-5ZM255 115v-5l5 5h-5ZM260 115v-5l5 5h-5ZM265 115v-5l5 5h-5ZM270 115v-5l5 5h-5ZM275 115v-5l5 5h-5ZM240 110v-5l5 5h-5ZM245 110v-5l5 5h-5ZM250 110v-5l5 5h-5ZM255 110v-5l5 5h-5ZM260 110v-5l5 5h-5ZM265 110v-5l5 5h-5ZM270 110v-5l5 5h-5ZM275 110v-5l5 5h-5ZM240 105v-5l5 5h-5ZM245 105v-5l5 5h-5ZM250 105v-5l5 5h-5ZM255 105v-5l5 5h-5ZM260 105v-5l5 5h-5ZM265 105v-5l5 5h-5ZM270 105v-5l5 5h-5ZM275 105v-5l5 5h-5ZM240 100v-5l5 5h-5ZM245 100v-5l5 5h-5ZM250 100v-5l5 5h-5ZM255 100v-5l5 5h-5ZM260 100v-5l5 5h-5ZM265 100v-5l5 5h-5ZM270 100v-5l5 5h-5ZM275 100v-5l5 5h-5ZM240 95v-5l5 5h-5ZM245 95v-5l5 5h-5ZM250 95v-5l5 5h-5ZM255 95v-5l5 5h-5ZM260 95v-5l5 5h-5ZM265 95v-5l5 5h-5ZM270 95v-5l5 5h-5ZM275 95v-5l5 5h-5ZM240 90v-5l5 5h-5ZM245 90v-5l5 5h-5ZM250 90v-5l5 5h-5ZM255 90v-5l5 5h-5ZM260 90v-5l5 5h-5ZM265 90v-5l5 5h-5ZM270 90v-5l5 5h-5ZM275 90v-5l5 5h-5ZM240 85v-5l5 5h-5ZM245 85v-5l5 5h-5ZM250 85v-5l5 5h-5ZM255 85v-5l5 5h-5ZM260 85v-5l5 5h-5ZM265 85v-5l5 5h-5ZM270 85v-5l5 5h-5ZM275 85v-5l5 5h-5Z"/><path fill="#131B2E" d="M40 120H0v40h40z"/><path fill="#766AFE" d="M40 140c0 11.046-8.954 20-20 20v-40c11.046 0 20 8.954 20 20Z"/><path fill="#30B2FE" d="M0 140c0 11.046 8.955 20 20 20v-40c-11.045 0-20 8.954-20 20Z"/><path fill="#131B2E" d="M80 160v-40H40v40z"/><path fill="#8126FE" d="M40 160v-5l5 5h-5ZM45 160v-5l5 5h-5ZM50 160v-5l5 5h-5ZM55 160v-5l5 5h-5ZM60 160v-5l5 5h-5ZM65 160v-5l5 5h-5ZM70 160v-5l5 5h-5ZM75 160v-5l5 5h-5ZM40 155v-5l5 5h-5ZM45 155v-5l5 5h-5ZM50 155v-5l5 5h-5ZM55 155v-5l5 5h-5ZM60 155v-5l5 5h-5ZM65 155v-5l5 5h-5ZM70 155v-5l5 5h-5ZM75 155v-5l5 5h-5ZM40 150v-5l5 5h-5ZM45 150v-5l5 5h-5ZM50 150v-5l5 5h-5ZM55 150v-5l5 5h-5ZM60 150v-5l5 5h-5ZM65 150v-5l5 5h-5ZM70 150v-5l5 5h-5ZM75 150v-5l5 5h-5ZM40 145v-5l5 5h-5ZM45 145v-5l5 5h-5ZM50 145v-5l5 5h-5ZM55 145v-5l5 5h-5ZM60 145v-5l5 5h-5ZM65 145v-5l5 5h-5ZM70 145v-5l5 5h-5ZM75 145v-5l5 5h-5ZM40 140v-5l5 5h-5ZM45 140v-5l5 5h-5ZM50 140v-5l5 5h-5ZM55 140v-5l5 5h-5ZM60 140v-5l5 5h-5ZM65 140v-5l5 5h-5ZM70 140v-5l5 5h-5ZM75 140v-5l5 5h-5ZM40 135v-5l5 5h-5ZM45 135v-5l5 5h-5ZM50 135v-5l5 5h-5ZM55 135v-5l5 5h-5ZM60 135v-5l5 5h-5ZM65 135v-5l5 5h-5ZM70 135v-5l5 5h-5ZM75 135v-5l5 5h-5ZM40 130v-5l5 5h-5ZM45 130v-5l5 5h-5ZM50 130v-5l5 5h-5ZM55 130v-5l5 5h-5ZM60 130v-5l5 5h-5ZM65 130v-5l5 5h-5ZM70 130v-5l5 5h-5ZM75 130v-5l5 5h-5ZM40 125v-5l5 5h-5ZM45 125v-5l5 5h-5ZM50 125v-5l5 5h-5ZM55 125v-5l5 5h-5ZM60 125v-5l5 5h-5ZM65 125v-5l5 5h-5ZM70 125v-5l5 5h-5ZM75 125v-5l5 5h-5Z"/><path fill="#30B2FE" d="M80 160v-40h40v40z"/><path fill="#8126FE" d="M120 160v-40l-40 40h40ZM120 160v-40h40v40z"/><path fill="#766AFE" d="M120 160a40.001 40.001 0 0 1 40-40v40h-40Z"/><path fill="#30B2FE" d="M160 160v-40h40v40z"/><path fill="#8126FE" d="M160 160v-20h40v20z"/><path fill="#8126FE" d="M160 160v-20h40v20z"/><path fill="#131B2E" d="M200 120v40h40v-40z"/><path fill="#8126FE" d="M220 160c0-11.045 8.955-20 20.001-20v20H220Z"/><path fill="#131B2E" d="M240 120h40v40h-40z"/><path fill="#8126FE" d="M260 160c0-11.045-8.954-20-20-20v20h20Z"/></svg>